<svg width="487" height="468" viewBox="0 0 487 468" fill="none" xmlns="http://www.w3.org/2000/svg">
<path fill-rule="evenodd" clip-rule="evenodd" d="M43.3515 0C51.6089 0 58.928 0.563191 65.3087 1.68953C72.0648 2.81589 77.6949 5.06859 82.1989 8.44765C86.703 11.8267 90.081 16.5199 92.333 22.5271C94.585 28.1589 95.7111 35.6679 95.7111 45.0542V100.245C105.094 96.491 113.915 93.8628 122.172 92.361C130.805 90.8592 140.189 90.1083 150.323 90.1083C168.339 90.1083 185.417 93.2996 201.556 99.6823C217.696 106.065 231.959 115.451 244.345 127.841C256.731 139.856 266.49 154.874 273.621 172.895C275.377 177.334 276.916 181.944 278.239 186.724C296.081 180.134 315.936 176.838 337.804 176.838C359.949 176.838 380.029 180.404 398.045 187.538C416.062 194.296 431.45 204.058 444.212 216.823C457.349 229.213 467.483 244.419 474.614 262.44C481.746 280.462 485.311 300.361 485.311 322.137C485.311 345.415 481.746 366.253 474.614 384.65C467.483 402.672 457.349 417.877 444.212 430.267C431.45 442.657 416.062 452.043 398.045 458.426C380.029 464.809 359.949 468 337.804 468C315.659 468 295.578 464.621 277.562 457.863C259.546 451.105 243.969 441.531 230.833 429.141C218.071 416.375 208.125 400.982 200.993 382.96C199.497 379.178 198.16 375.297 196.977 371.316C196.071 371.636 195.158 371.953 194.237 372.26C175.47 378.267 154.639 381.271 131.743 381.271C106.971 381.271 85.9523 378.267 68.6868 372.26C51.4212 366.628 36.7831 359.495 24.7723 350.859C8.25743 339.22 1.37619e-06 324.202 0 305.805V5.63177C3.75338 4.50541 9.75878 3.37905 18.0162 2.25271C26.2736 0.7509 34.7187 3.96985e-07 43.3515 0ZM337.804 251.74C322.04 251.74 309.841 257.935 301.208 270.325C292.576 282.339 288.259 299.61 288.259 322.137C288.259 345.04 292.576 362.686 301.208 375.076C310.216 387.09 322.603 393.098 338.367 393.098C354.131 393.098 366.142 386.903 374.399 374.513C383.032 362.123 387.348 344.664 387.348 322.137C387.348 299.61 383.032 282.339 374.399 270.325C365.766 257.935 353.568 251.74 337.804 251.74ZM132.306 165.011C124.8 165.011 118.231 165.762 112.601 167.264C107.347 168.765 101.529 171.018 95.148 174.022V296.794C99.2768 299.422 104.156 301.675 109.786 303.552C115.792 305.054 123.111 305.805 131.743 305.805C149.009 305.805 162.333 299.986 171.717 288.347C181.476 276.332 186.355 258.686 186.355 235.408C186.355 211.755 181.476 194.108 171.717 182.469C161.958 170.83 148.821 165.011 132.306 165.011Z" fill="#0D9488"/>
<path d="M433.359 139.399C443.355 136.54 455.332 137.488 468.476 146.972C481.461 156.341 486.26 167.641 486.919 178.404C487.574 189.105 484.137 199.185 480.823 206.224C477.776 212.695 469.781 213.809 464.3 209.638L412.378 170.134C407.281 166.257 405.913 158.962 410.5 154.137C415.571 148.802 423.428 142.24 433.359 139.399Z" fill="#0D9488"/>
<path d="M359.761 115.451C366.602 115.451 372.147 120.998 372.147 127.841V130.404C372.147 137.247 366.602 142.794 359.761 142.794H356.488C352.221 142.794 348.76 146.256 348.76 150.524C348.76 156.037 344.293 160.505 338.782 160.505H325.305C319.795 160.505 315.328 156.037 315.327 150.524C315.327 146.256 311.867 142.794 307.599 142.794H301.208C294.368 142.794 288.822 137.247 288.822 130.404V127.841C288.822 120.998 294.368 115.451 301.208 115.451H359.761Z" fill="#0D9488"/>
</svg>
