<svg width="757" height="170" viewBox="0 0 757 170" fill="none" xmlns="http://www.w3.org/2000/svg">
<path d="M19.75 0.75C23.4167 0.75 26.6667 1.00001 29.5 1.5C32.5 2 35 3 37 4.5C39 6 40.5 8.08334 41.5 10.75C42.5 13.25 43 16.5833 43 20.75V45.25C47.1667 43.5833 51.0833 42.4167 54.75 41.75C58.5833 41.0833 62.75 40.75 67.25 40.75C75.25 40.75 82.8333 42.1667 90 45C97.1667 47.8333 103.5 52 109 57.5C114.5 62.8333 118.833 69.5 122 77.5C125.167 85.5 126.75 94.75 126.75 105.25C126.75 116.083 125.083 125.583 121.75 133.75C118.583 141.75 114.083 148.417 108.25 153.75C102.417 159.083 95.25 163.167 86.75 166C78.4167 168.667 69.1667 170 59 170C48 170 38.6667 168.667 31 166C23.3333 163.5 16.8333 160.333 11.5 156.5C4.16667 151.333 0.500001 144.667 0.5 136.5V3.25C2.16667 2.75 4.83333 2.24999 8.5 1.75C12.1667 1.08333 15.9167 0.75 19.75 0.75ZM204.711 40.75C213.544 40.75 221.544 42.0833 228.711 44.75C236.044 47.4167 242.294 51.0833 247.461 55.75C252.794 60.4167 256.878 66 259.711 72.5C262.711 79 264.211 86.0833 264.211 93.75C264.211 99.4167 262.628 103.75 259.461 106.75C256.294 109.75 251.878 111.667 246.211 112.5L184.461 121.75C186.294 127.25 190.044 131.417 195.711 134.25C201.378 136.917 207.878 138.25 215.211 138.25C222.044 138.25 228.461 137.417 234.461 135.75C240.628 133.917 245.628 131.833 249.461 129.5C252.128 131.167 254.378 133.5 256.211 136.5C258.044 139.5 258.961 142.667 258.961 146C258.961 153.5 255.461 159.083 248.461 162.75C243.128 165.583 237.128 167.5 230.461 168.5C223.794 169.5 217.544 170 211.711 170C201.878 170 192.711 168.667 184.211 166C175.878 163.167 168.544 159 162.211 153.5C156.044 148 151.128 141.083 147.461 132.75C143.961 124.417 142.211 114.667 142.211 103.5C142.211 92.5 143.961 83.0833 147.461 75.25C151.128 67.25 155.878 60.75 161.711 55.75C167.544 50.5833 174.211 46.8333 181.711 44.5C189.211 42 196.878 40.75 204.711 40.75ZM687.691 40.75C697.525 40.75 706.441 42.3333 714.441 45.5C722.441 48.5 729.275 52.8333 734.941 58.5C740.775 64 745.275 70.75 748.441 78.75C751.608 86.75 753.191 95.5833 753.191 105.25C753.191 115.583 751.608 124.833 748.441 133C745.275 141 740.775 147.75 734.941 153.25C729.275 158.75 722.441 162.917 714.441 165.75C706.441 168.583 697.525 170 687.691 170C677.858 170 668.941 168.5 660.941 165.5C652.941 162.5 646.025 158.25 640.191 152.75C634.525 147.083 630.108 140.25 626.941 132.25C623.775 124.25 622.191 115.25 622.191 105.25C622.191 95.4167 623.775 86.5 626.941 78.5C630.108 70.5 634.525 63.75 640.191 58.25C646.025 52.5833 652.941 48.25 660.941 45.25C668.941 42.25 677.858 40.75 687.691 40.75ZM588.932 42C594.765 42 599.682 43.25 603.682 45.75C607.682 48.25 609.682 52.5833 609.682 58.75C609.682 61.4167 609.015 65.3333 607.682 70.5C606.515 75.5 604.932 81.25 602.932 87.75C601.098 94.0833 598.848 100.833 596.182 108C593.682 115.167 591.098 122.167 588.432 129C585.765 135.833 583.098 142.25 580.432 148.25C577.932 154.083 575.682 158.917 573.682 162.75C571.348 164.583 567.932 166.083 563.432 167.25C558.932 168.417 553.848 169 548.182 169C541.682 169 536.015 168.167 531.182 166.5C526.515 164.833 523.265 162.167 521.432 158.5C519.932 155.667 518.098 151.75 515.932 146.75C513.932 141.583 511.765 135.917 509.432 129.75C507.098 123.417 504.682 116.667 502.182 109.5C499.682 102.333 497.265 95.25 494.932 88.25C492.765 81.25 490.765 74.5 488.932 68C487.098 61.5 485.598 55.75 484.432 50.75C486.765 48.4167 489.848 46.4167 493.682 44.75C497.682 42.9167 502.015 42 506.682 42C512.515 42 517.265 43.25 520.932 45.75C524.765 48.0833 527.598 52.5833 529.432 59.25L539.182 97.5C541.015 105 542.765 111.833 544.432 118C546.098 124 547.348 128.667 548.182 132H549.432C552.598 119.667 555.932 106 559.432 91C562.932 76 566.098 61.25 568.932 46.75C571.765 45.25 574.932 44.0833 578.432 43.25C582.098 42.4167 585.598 42 588.932 42ZM419.668 40.75C426.001 40.75 432.168 41.5833 438.168 43.25C444.335 44.9167 449.751 47.5833 454.418 51.25C459.251 54.75 463.085 59.5 465.918 65.5C468.751 71.3333 470.168 78.5 470.168 87V165.75C468.501 166.25 465.835 166.75 462.168 167.25C458.668 167.75 455.001 168 451.168 168C447.501 168 444.168 167.75 441.168 167.25C438.335 166.75 435.918 165.75 433.918 164.25C431.918 162.75 430.335 160.75 429.168 158.25C428.168 155.583 427.668 152.167 427.668 148V88.25C427.668 83.25 426.251 79.6667 423.418 77.5C420.585 75.1667 416.751 74 411.918 74C409.585 74 407.085 74.5833 404.418 75.75C401.751 76.75 399.751 77.8333 398.418 79C398.585 79.6667 398.668 80.3333 398.668 81V165.75C396.835 166.25 394.085 166.75 390.418 167.25C386.918 167.75 383.335 168 379.668 168C376.001 168 372.668 167.75 369.668 167.25C366.835 166.75 364.418 165.75 362.418 164.25C360.418 162.75 358.835 160.75 357.668 158.25C356.668 155.583 356.168 152.167 356.168 148V88.25C356.168 83.25 354.585 79.6667 351.418 77.5C348.418 75.1667 344.751 74 340.418 74C337.418 74 334.835 74.5 332.668 75.5C330.501 76.3333 328.668 77.1667 327.168 78V165.75C325.501 166.25 322.835 166.75 319.168 167.25C315.668 167.75 312.001 168 308.168 168C304.501 168 301.168 167.75 298.168 167.25C295.335 166.75 292.918 165.75 290.918 164.25C288.918 162.75 287.335 160.75 286.168 158.25C285.168 155.583 284.668 152.167 284.668 148V72.5C284.668 68 285.585 64.4167 287.418 61.75C289.418 59.0833 292.085 56.5833 295.418 54.25C301.085 50.25 308.085 47 316.418 44.5C324.918 42 333.751 40.75 342.918 40.75C349.751 40.75 356.418 41.75 362.918 43.75C369.585 45.5833 375.335 48.4167 380.168 52.25C385.168 48.9167 390.751 46.1667 396.918 44C403.251 41.8333 410.835 40.75 419.668 40.75ZM687.691 74C680.691 74 675.275 76.75 671.441 82.25C667.608 87.5833 665.691 95.25 665.691 105.25C665.691 115.417 667.608 123.25 671.441 128.75C675.441 134.083 680.941 136.75 687.941 136.75C694.941 136.75 700.275 134 703.941 128.5C707.775 123 709.691 115.25 709.691 105.25C709.691 95.25 707.775 87.5833 703.941 82.25C700.108 76.75 694.691 74 687.691 74ZM59.25 74C55.9167 74 53 74.3333 50.5 75C48.1667 75.6667 45.5833 76.6667 42.75 78V132.5C44.5833 133.667 46.75 134.667 49.25 135.5C51.9167 136.167 55.1667 136.5 59 136.5C66.6667 136.5 72.5833 133.917 76.75 128.75C81.0833 123.417 83.25 115.583 83.25 105.25C83.25 94.75 81.0833 86.9167 76.75 81.75C72.4167 76.5833 66.5833 74 59.25 74ZM204.711 71.75C200.711 71.75 197.211 72.4167 194.211 73.75C191.378 75.0833 189.044 76.8333 187.211 79C185.378 81 183.961 83.3333 182.961 86C182.128 88.5 181.628 91.0833 181.461 93.75L224.211 86.75C223.711 83.4167 221.878 80.0833 218.711 76.75C215.544 73.4167 210.878 71.75 204.711 71.75ZM732.681 28.1309C737.119 26.8614 742.438 27.2822 748.274 31.4922C754.04 35.6512 756.171 40.6677 756.464 45.4453C756.755 50.1956 755.228 54.6704 753.757 57.7949C752.404 60.6673 748.854 61.1619 746.42 59.3105L723.364 41.7744C721.101 40.0531 720.494 36.8147 722.53 34.6729C724.782 32.3046 728.271 29.392 732.681 28.1309ZM700 17.5C703.038 17.5 705.5 19.9624 705.5 23V24.1377C705.5 27.1753 703.038 29.6377 700 29.6377H698.547C696.652 29.6377 695.115 31.1744 695.115 33.0693C695.115 35.5163 693.132 37.4999 690.685 37.5H684.7C682.253 37.5 680.27 35.5163 680.27 33.0693C680.27 31.1744 678.733 29.6377 676.838 29.6377H674C670.962 29.6377 668.5 27.1753 668.5 24.1377V23C668.5 19.9624 670.962 17.5 674 17.5H700Z" fill="#0D9488"/>
</svg>
